<?xml version="1.0" encoding="UTF-8"?><svg id="Layer_1" xmlns="http://www.w3.org/2000/svg" viewBox="0 0 24 24"><defs><style>.cls-1{fill:#ca1f26;}</style></defs><path class="cls-1" d="M3.01,12.01c0-3.23,0-6.46,0-9.69C3.01,.79,3.8,0,5.32,0,8.59,0,11.87,.01,15.14,0c.39,0,.67,.11,.95,.39,1.49,1.51,2.99,3.01,4.5,4.5,.27,.27,.4,.55,.4,.94-.01,5.29,0,10.58,0,15.88,0,1.49-.8,2.28-2.28,2.28-4.48,0-8.95,0-13.43,0-1.46,0-2.27-.8-2.27-2.25,0-3.25,0-6.49,0-9.74ZM14.99,1.01c-.19,0-.32,0-.44,0-3.1,0-6.21,0-9.31,0-.9,0-1.23,.33-1.23,1.26,0,6.48,0,12.96,0,19.44,0,.97,.32,1.28,1.3,1.28,4.46,0,8.92,0,13.39,0,.97,0,1.28-.31,1.28-1.29,0-5.06,0-10.12,0-15.18,0-.16-.01-.33-.02-.52-.94,0-1.83,0-2.72,0-1.45,0-2.25-.81-2.25-2.27,0-.89,0-1.77,0-2.72Zm4.05,3.98l-3.03-3.03c0,.64-.02,1.37,0,2.1,.02,.55,.38,.91,.92,.93,.73,.03,1.46,0,2.11,0Z"/><path class="cls-1" d="M13.07,9.92c-.19,.69-.34,1.39-.57,2.06-.15,.43-.1,.73,.23,1.03,.51,.46,.98,.96,1.5,1.4,.17,.15,.47,.2,.71,.2,.59,0,1.18-.1,1.77-.06,1.03,.07,1.5,.77,1.19,1.65-.24,.66-1.14,1.01-1.85,.67-.46-.22-.9-.5-1.31-.8-.31-.23-.59-.34-.98-.22-.8,.24-1.62,.45-2.43,.66-.35,.09-.55,.29-.71,.6-.47,.91-1.07,1.72-1.88,2.36-.6,.47-1.25,.71-2,.37-.79-.36-.99-1.16-.41-1.8,.28-.31,.63-.56,1-.76,.81-.44,1.65-.81,2.46-1.24,.19-.1,.38-.29,.45-.48,.32-.84,.62-1.7,.88-2.56,.05-.18-.06-.45-.18-.62-.58-.84-1.02-1.7-.92-2.78,.11-1.16,.78-1.74,1.86-1.56,.57,.09,.9,.42,1.03,1.06,.05,.26,.06,.53,.09,.79l.07,.02Zm-1.51,1.55h.15c.09-.65,.2-1.32,.24-1.99,0-.15-.22-.4-.38-.46-.29-.1-.44,.12-.51,.4-.19,.78,.08,1.43,.5,2.04Zm.41,2.2l-.57,1.74,1.76-.47-1.19-1.27Zm-2.85,3.85c-.73,.38-1.56,.58-2.12,1.27,.66,.38,1.44-.1,2.12-1.27Zm6.75-2.04l-.05,.19c.31,.11,.61,.23,.92,.31,.06,.01,.16-.14,.24-.21-.07-.07-.13-.18-.21-.19-.3-.05-.6-.06-.89-.09Z"/></svg>